# xmcd
# Copyright (C) 1995-1998 Ti Kan
#
# Track frame offsets:
#       150
#       13820
#       27196
#
# Disc length: 573 seconds
#
# Revision: 0
# Processed by: cddbd v1.5.1PL2 Copyright (c) Steve Scherf et al.
# Submitted via: CD-Transfer v1.0
#
DISCID=1a023b03
DTITLE=Alpen Rebellen - 
DYEAR=06
DGENRE=
TTITLE0=Gemma Wildern (Neu)
TTITLE1=Es Kann Sein (Neu)
TTITLE2=Dos Leb´n Is Hort Doch Wir San Härter (Neu)
EXTD=
EXTT0=
EXTT1=
EXTT2=
PLAYORDER=
